<?xml version="1.0" encoding="utf-8"?>
<!-- Generator: Adobe Illustrator 21.0.2, SVG Export Plug-In . SVG Version: 6.00 Build 0)  -->
<svg version="1.1" id="Layer_1" xmlns="http://www.w3.org/2000/svg" xmlns:xlink="http://www.w3.org/1999/xlink" x="0px" y="0px"
	 width="1000px" height="1000px" viewBox="0 0 1000 1000" style="enable-background:new 0 0 1000 1000;" xml:space="preserve">
<style type="text/css">
	.st0{fill:#FFFFFF;}
</style>
<path class="st0" d="M643.3,499.7L503.2,257c-0.9-1.6-1.9-3.2-2.9-4.8c-1.2,1.9-2.4,3.8-3.6,5.9L356.7,500.8
	c-28.4,49.3-28.4,107.5-5.2,155.4l5.2,9c45.5,78.8,147.2,106.1,226.1,60.6l0,0C661.6,680.2,688.8,578.5,643.3,499.7z M484.3,413
	l-72.6,128.3c-11.2,24.4-12,54.1-2.1,79.7l2.3,5c7.6,16.2,19.4,28.7,33.2,35.1c9.1,4.2,13,15.1,8.8,24.2
	c-3.1,6.6-9.6,10.5-16.5,10.5c-2.6,0-5.2-0.5-7.7-1.7c-21.5-10.1-39.6-28.8-50.8-52.7l-3.1-6.6c-13.8-35-12.7-76,3.1-109.5l0.7-1.2
	l73-128.9c4.9-8.7,16.1-11.8,24.8-6.9C486.1,393.1,489.3,404.2,484.3,413z"/>
</svg>
